# xmcd
#
# Track frame offsets:
#	150
#	21269
#	39349
#	55331
#	71929
#	85963
#	101159
#	117541
#	132591
#	151612
#	165607
#	187702
#	204326
#	219500
#
# Disc length: 3189 seconds
# Revision: 0
# Processed by: cddbd v1.5.2PL0 Copyright (c) Steve Scherf et al.
# Submitted via: dBpowerAMP V12.0
#
DISCID=c20c730e
DTITLE=Pascal Rinaldi - Au-dela de cette limite
DYEAR=2008
DGENRE=Chanson
TTITLE0=La memoire et la mer
TTITLE1=Au-dela de cette limite
TTITLE2=L'effet papillon
TTITLE3=Moderato cantabile
TTITLE4=La guerre de toi
TTITLE5=Sexuel entre nous
TTITLE6=Venons en aux mains
TTITLE7=Les cendres
TTITLE8=Nos fiancailles
TTITLE9=Les neiges eternelles
TTITLE10=Enola Gay
TTITLE11=Les jours avec
TTITLE12=On fume
TTITLE13=Abstraction faite
EXTD=
EXTT0=
EXTT1=
EXTT2=
EXTT3=
EXTT4=
EXTT5=
EXTT6=
EXTT7=
EXTT8=
EXTT9=
EXTT10=
EXTT11=
EXTT12=
EXTT13=
PLAYORDER=
